<?xml version="1.0" standalone="no"?>
<!DOCTYPE svg PUBLIC "-//W3C//DTD SVG 20010904//EN"
 "http://www.w3.org/TR/2001/REC-SVG-20010904/DTD/svg10.dtd">
<svg version="1.0" xmlns="http://www.w3.org/2000/svg"
 width="320.000000pt" height="320.000000pt" viewBox="0 0 320.000000 320.000000"
 preserveAspectRatio="xMidYMid meet">

<g transform="translate(0.000000,320.000000) scale(0.100000,-0.100000)"
fill="#000000" stroke="none">
<path d="M1120 2179 c-13 -9 -12 -10 3 -5 14 4 17 -1 17 -29 0 -24 -5 -35 -15
-35 -18 0 -20 16 -2 23 7 3 5 6 -5 6 -15 1 -17 -6 -12 -46 4 -27 13 -54 22
-60 13 -11 13 -13 1 -13 -12 0 -12 -2 1 -10 12 -8 12 -10 1 -10 -11 0 -13 -14
-8 -71 5 -61 -4 -182 -28 -359 -4 -29 -3 -31 4 -10 l9 25 2 -25 2 -25 8 25 c4
14 8 19 9 13 1 -18 19 -16 38 2 10 10 13 24 9 40 -4 14 -2 25 4 25 5 0 11 -17
11 -37 1 -21 3 -54 5 -75 2 -25 -2 -38 -11 -42 -19 -7 -19 -68 -1 -121 l14
-40 4 35 4 35 8 -32 c11 -41 28 -44 20 -3 -4 19 -2 30 5 30 6 0 11 -9 11 -19
0 -11 5 -23 11 -27 9 -5 10 1 5 20 l-6 26 70 0 70 0 0 61 0 62 -52 -7 c-29 -4
-72 -8 -95 -10 -43 -3 -43 -2 -45 33 -1 20 0 50 1 66 1 17 2 135 3 262 0 134
4 231 9 227 5 -3 9 0 9 5 0 6 -6 11 -12 11 -9 0 -8 4 2 11 12 8 10 9 -7 4 -16
-4 -23 -2 -23 8 0 10 8 13 25 9 14 -2 25 0 25 5 0 5 -8 10 -17 10 -57 -1 -73
4 -73 21 0 14 2 15 10 2 9 -13 10 -13 10 0 0 12 2 12 9 2 7 -11 9 -11 14 2 5
13 -1 16 -26 16 -18 0 -39 -5 -47 -11z m37 -61 c-3 -8 -6 -5 -6 6 -1 11 2 17
5 13 3 -3 4 -12 1 -19z m20 0 c-3 -8 -6 -5 -6 6 -1 11 2 17 5 13 3 -3 4 -12 1
-19z m-37 -33 c0 -8 -4 -15 -10 -15 -5 0 -10 7 -10 15 0 8 5 15 10 15 6 0 10
-7 10 -15z m51 -30 c5 4 9 1 9 -4 0 -6 -7 -11 -15 -11 -11 0 -15 10 -14 33 2
30 2 30 6 4 2 -15 9 -25 14 -22z m13 30 c-4 -8 -8 -15 -10 -15 -2 0 -4 7 -4
15 0 8 4 15 10 15 5 0 7 -7 4 -15z m-47 -37 c-3 -8 -6 -5 -6 6 -1 11 2 17 5
13 3 -3 4 -12 1 -19z m-17 2 c0 -5 -4 -10 -10 -10 -5 0 -10 5 -10 10 0 6 5 10
10 10 6 0 10 -4 10 -10z m68 -37 c2 -7 -1 -13 -8 -13 -6 0 -8 5 -4 11 4 7 0 9
-14 5 -11 -4 -23 -2 -27 4 -5 8 2 10 21 8 15 -2 29 -9 32 -15z m-11 -95 c-3
-8 -6 -5 -6 6 -1 11 2 17 5 13 3 -3 4 -12 1 -19z m-20 -100 c-3 -8 -6 -5 -6 6
-1 11 2 17 5 13 3 -3 4 -12 1 -19z m-30 -160 c-3 -7 -5 -2 -5 12 0 14 2 19 5
13 2 -7 2 -19 0 -25z m43 7 c0 -8 -4 -15 -10 -15 -5 0 -10 7 -10 15 0 8 5 15
10 15 6 0 10 -7 10 -15z m-43 -57 c-3 -7 -5 -2 -5 12 0 14 2 19 5 13 2 -7 2
-19 0 -25z"/>
<path d="M1211 2164 c0 -11 3 -14 6 -6 3 7 2 16 -1 19 -3 4 -6 -2 -5 -13z"/>
<path d="M1944 1591 c3 -5 -1 -11 -9 -15 -17 -6 -21 -71 -5 -81 15 -9 82 23
74 36 -4 8 -3 9 4 5 7 -4 12 -2 12 4 0 6 5 8 10 5 6 -3 10 3 10 14 0 12 -5 21
-11 21 -5 0 -7 5 -4 10 4 6 -12 10 -40 10 -25 0 -44 -4 -41 -9z"/>
<path d="M1641 1551 c-11 -7 -11 -9 0 -14 11 -4 11 -6 1 -6 -10 -1 -10 -5 2
-17 9 -8 13 -21 9 -27 -4 -7 0 -8 11 -4 11 5 15 3 10 -5 -5 -7 0 -9 14 -6 12
3 23 1 25 -5 2 -6 9 -7 15 -3 16 9 15 69 0 84 -14 14 -67 16 -87 3z"/>
<path d="M1143 1533 c-7 -3 -13 -17 -12 -31 l1 -27 9 25 c6 16 7 -9 4 -72 -3
-60 -1 -98 5 -98 6 0 10 40 10 94 0 64 4 96 12 98 8 3 7 6 -3 10 -7 3 -20 3
-26 1z"/>
<path d="M1100 1495 c0 -19 2 -35 4 -35 2 0 6 16 8 35 2 19 0 35 -4 35 -4 0
-8 -16 -8 -35z"/>
<path d="M2010 1512 c-14 -9 -27 -20 -28 -25 -2 -4 -8 -5 -13 -1 -5 3 -9 1 -9
-5 0 -6 -6 -8 -14 -5 -10 4 -15 -5 -18 -29 -4 -34 -3 -35 37 -35 34 0 37 1 17
9 -13 5 -28 7 -33 3 -5 -3 -9 -1 -9 5 0 7 16 8 44 5 38 -6 45 -4 50 13 5 15 6
89 1 82 0 0 -11 -8 -25 -17z m11 -35 c-10 -9 -11 -8 -5 6 3 10 9 15 12 12 3
-3 0 -11 -7 -18z"/>
<path d="M1650 1460 c0 -5 5 -10 11 -10 8 0 8 -5 -1 -15 -13 -16 -14 -16 42
-20 18 -1 28 4 31 17 4 12 -1 18 -14 19 -32 2 -37 4 -45 12 -11 10 -24 9 -24
-3z"/>
<path d="M1084 1390 c-6 -33 -7 -60 -3 -60 8 0 24 108 17 115 -2 3 -9 -22 -14
-55z"/>
<path d="M1121 1430 c-1 -3 -4 -27 -7 -55 -4 -39 -2 -46 6 -32 6 9 9 34 7 55
-2 20 -5 35 -6 32z"/>
<path d="M1047 1363 c-5 -26 -2 -42 7 -32 9 11 15 59 7 59 -5 0 -11 -12 -14
-27z"/>
<path d="M2014 1375 c-10 -8 -27 -15 -36 -15 -24 0 -23 -20 0 -20 14 0 18 -8
18 -35 l0 -35 -477 0 c-459 0 -477 -1 -472 -18 4 -18 30 -19 485 -26 413 -6
482 -5 497 7 9 8 33 22 54 30 38 17 46 33 25 56 -10 11 -10 14 0 18 22 8 13
24 -23 39 -43 17 -47 17 -71 -1z"/>
<path d="M1630 1350 c0 -5 5 -10 10 -10 6 0 10 5 10 10 0 6 -4 10 -10 10 -5 0
-10 -4 -10 -10z"/>
<path d="M1660 1350 c0 -5 7 -10 15 -10 8 0 15 5 15 10 0 6 -7 10 -15 10 -8 0
-15 -4 -15 -10z"/>
<path d="M1700 1350 c0 -5 5 -10 10 -10 6 0 10 5 10 10 0 6 -4 10 -10 10 -5 0
-10 -4 -10 -10z"/>
<path d="M1730 1350 c0 -5 5 -10 10 -10 6 0 10 5 10 10 0 6 -4 10 -10 10 -5 0
-10 -4 -10 -10z"/>
<path d="M1760 1350 c0 -5 14 -10 30 -10 17 0 30 5 30 10 0 6 -13 10 -30 10
-16 0 -30 -4 -30 -10z"/>
<path d="M1830 1350 c0 -5 5 -10 10 -10 6 0 10 5 10 10 0 6 -4 10 -10 10 -5 0
-10 -4 -10 -10z"/>
<path d="M1860 1350 c0 -5 5 -10 10 -10 6 0 10 5 10 10 0 6 -4 10 -10 10 -5 0
-10 -4 -10 -10z"/>
<path d="M1890 1350 c0 -5 14 -10 30 -10 17 0 30 5 30 10 0 6 -13 10 -30 10
-16 0 -30 -4 -30 -10z"/>
<path d="M1630 1300 c0 -5 5 -10 10 -10 6 0 10 5 10 10 0 6 -4 10 -10 10 -5 0
-10 -4 -10 -10z"/>
<path d="M1660 1300 c0 -5 7 -10 15 -10 8 0 15 5 15 10 0 6 -7 10 -15 10 -8 0
-15 -4 -15 -10z"/>
<path d="M1700 1300 c0 -5 5 -10 10 -10 6 0 10 5 10 10 0 6 -4 10 -10 10 -5 0
-10 -4 -10 -10z"/>
<path d="M1730 1300 c0 -5 5 -10 10 -10 6 0 10 5 10 10 0 6 -4 10 -10 10 -5 0
-10 -4 -10 -10z"/>
<path d="M1760 1300 c0 -5 14 -10 30 -10 17 0 30 5 30 10 0 6 -13 10 -30 10
-16 0 -30 -4 -30 -10z"/>
<path d="M1830 1300 c0 -5 5 -10 10 -10 6 0 10 5 10 10 0 6 -4 10 -10 10 -5 0
-10 -4 -10 -10z"/>
<path d="M1860 1300 c0 -5 5 -10 10 -10 6 0 10 5 10 10 0 6 -4 10 -10 10 -5 0
-10 -4 -10 -10z"/>
<path d="M1890 1300 c0 -5 14 -10 30 -10 17 0 30 5 30 10 0 6 -13 10 -30 10
-16 0 -30 -4 -30 -10z"/>
<path d="M1960 1300 c0 -5 5 -10 10 -10 6 0 10 5 10 10 0 6 -4 10 -10 10 -5 0
-10 -4 -10 -10z"/>
<path d="M1228 1293 c7 -3 16 -2 19 1 4 3 -2 6 -13 5 -11 0 -14 -3 -6 -6z"/>
<path d="M1413 1293 c9 -2 23 -2 30 0 6 3 -1 5 -18 5 -16 0 -22 -2 -12 -5z"/>
</g>
</svg>
